<svg xmlns="http://www.w3.org/2000/svg" width="512" height="512" viewBox="0 0 512 512">
  <path fill="#eee"
    d="m285 57 114-32 113 32v57l-32 29 32 28v57l-32 28 32 29v57l-32 29 32 28v57l-256 32L0 456v-57l32-28-32-29v-57z" />
  <path fill="#d80027"
    d="m285 0-32 57h259V0Zm-32 114v57h259v-57zm0 114 32 57h227v-57ZM0 342v57h512v-57zm0 114v56h512v-56z" />
  <path fill="#0052b4" d="M0 0h285v285H0Z" />
  <path fill="#eee"
    d="m202 258 57-41h-70l57 41-22-67zm-81 0 57-41h-70l57 41-22-67zm-82 0 57-41H26l57 41-22-67zm163-81 57-41h-70l57 41-22-67zm-81 0 57-41h-70l57 41-22-67zm-82 0 57-41H26l57 41-22-67zm163-83 57-41h-70l57 41-22-67zm-81 0 57-41h-70l57 41-22-67zm-82 0 57-41H26l57 41-22-67z" />
</svg>
